<svg xmlns="http://www.w3.org/2000/svg" viewBox="0 0 460 160" width="100%" height="100%">
  <rect x="20" y="20" width="150" height="120" fill="none" stroke="#1F3864" stroke-width="2"/>
  <rect x="21" y="80" width="148" height="59" fill="#DEEAF6" opacity="0.7"/>
  <text x="30" y="40" font-family="Arial" font-size="11" font-weight="bold" fill="#1F3864">FUEL TANK</text>
  
  <line x1="170" y1="90" x2="70" y2="90" stroke="#1F3864" stroke-width="3"/>
  <circle cx="70" cy="90" r="14" fill="#1F3864"/>
  
  <path d="M 185,65 A 30,30 0 0,1 185,115" fill="none" stroke="#BF8F00" stroke-width="4"/>
  <line x1="170" y1="90" x2="190" y2="90" stroke="#C00000" stroke-width="2"/> <circle cx="170" cy="90" r="4" fill="#1F3864"/> <text x="200" y="125" font-family="Arial" font-size="10" fill="#BF8F00" font-weight="bold">VARIABLE RESISTOR</text>
  
  <path d="M 190,90 L 280,90 L 280,80" stroke="#1F3864" stroke-width="1.5" fill="none"/>
  <path d="M 170,90 L 170,110 L 160,110" stroke="#1F3864" stroke-width="1.5" fill="none"/>
  <line x1="150" y1="110" x2="160" y2="110" stroke="#1F3864" stroke-width="1.5"/>
  <line x1="152" y1="114" x2="158" y2="114" stroke="#1F3864" stroke-width="1.5"/>
  <line x1="154" y1="118" x2="156" y2="118" stroke="#1F3864" stroke-width="1.5"/>

  <circle cx="340" cy="80" r="35" fill="#FFF2CC" stroke="#BF8F00" stroke-width="2"/>
  <text x="340" y="70" font-family="Arial" font-size="9" font-weight="bold" fill="#1F3864" text-anchor="middle">FUEL QTY</text>
  <text x="340" y="82" font-family="Arial" font-size="8" fill="#1F3864" text-anchor="middle">GALLONS</text>
  <text x="315" y="100" font-family="Arial" font-size="10" font-weight="bold" fill="#C00000">E</text>
  <text x="365" y="100" font-family="Arial" font-size="10" font-weight="bold" fill="#548235">F</text>
  <line x1="340" y1="80" x2="320" y2="60" stroke="#1F3864" stroke-width="2.5"/>
  
  <line x1="375" y1="80" x2="410" y2="80" stroke="#1F3864" stroke-width="1.5"/>
  <text x="415" y="83" font-family="Arial" font-size="10" font-weight="bold" fill="#1F3864">+D.C. SUPPLY</text>
</svg>
